<svg width="119" height="72" viewBox="0 0 119 72" fill="none" xmlns="http://www.w3.org/2000/svg">
<path d="M33.5354 26.1491C33.5354 27.6307 33.6937 28.8321 33.9707 29.7131C34.2874 30.594 34.6831 31.5551 35.2372 32.5963C35.4351 32.9166 35.5143 33.237 35.5143 33.5173C35.5143 33.9177 35.2768 34.3182 34.7623 34.7186L32.2689 36.4005C31.9127 36.6408 31.5565 36.7609 31.2398 36.7609C30.8441 36.7609 30.4483 36.5607 30.0525 36.2003C29.4984 35.5996 29.0235 34.9589 28.6277 34.3182C28.2319 33.6374 27.8361 32.8766 27.4008 31.9556C24.3137 35.6397 20.435 37.4817 15.7648 37.4817C12.4402 37.4817 9.78847 36.5206 7.84913 34.5985C5.9098 32.6764 4.92035 30.1135 4.92035 26.9099C4.92035 23.5062 6.10769 20.7431 8.52196 18.6608C10.9362 16.5784 14.1421 15.5373 18.2186 15.5373C19.5643 15.5373 20.9495 15.6574 22.4139 15.8576C23.8783 16.0579 25.3823 16.3782 26.9654 16.7386V13.8154C26.9654 10.772 26.3321 8.64962 25.1052 7.40824C23.8387 6.16686 21.7015 5.56619 18.654 5.56619C17.2687 5.56619 15.8439 5.72637 14.3795 6.08677C12.9151 6.44717 11.4903 6.88766 10.1051 7.44829C9.47184 7.7286 8.9969 7.88878 8.71985 7.96887C8.44281 8.04896 8.24492 8.089 8.0866 8.089C7.53251 8.089 7.25546 7.68856 7.25546 6.84762V4.88544C7.25546 4.24472 7.33462 3.76419 7.53251 3.48388C7.7304 3.20356 8.0866 2.92325 8.6407 2.64294C10.0259 1.92214 11.6882 1.32147 13.6275 0.840936C15.5669 0.320356 17.6249 0.0800891 19.8017 0.0800891C24.5115 0.0800891 27.9549 1.16129 30.1712 3.3237C32.348 5.4861 33.4562 8.76976 33.4562 13.1747V26.1491H33.5354ZM17.4666 32.2359C18.7727 32.2359 20.1184 31.9956 21.5432 31.5151C22.968 31.0345 24.2345 30.1536 25.3031 28.9522C25.9364 28.1914 26.4113 27.3504 26.6488 26.3894C26.8862 25.4283 27.0446 24.267 27.0446 22.9055V21.2236C25.8968 20.9433 24.6699 20.703 23.4034 20.5429C22.1369 20.3827 20.9099 20.3026 19.683 20.3026C17.0313 20.3026 15.0919 20.8232 13.7859 21.9044C12.4798 22.9856 11.8465 24.5073 11.8465 26.5095C11.8465 28.3916 12.3215 29.7932 13.3109 30.7542C14.2608 31.7553 15.646 32.2359 17.4666 32.2359ZM49.2479 36.5607C48.5355 36.5607 48.0606 36.4406 47.7439 36.1602C47.4273 35.92 47.1503 35.3593 46.9128 34.5985L37.6119 3.64405C37.3745 2.84316 37.2557 2.32258 37.2557 2.04227C37.2557 1.40156 37.5723 1.04116 38.2056 1.04116H42.0843C42.8362 1.04116 43.3508 1.16129 43.6278 1.4416C43.9444 1.68187 44.1819 2.2425 44.4194 3.00334L51.0685 29.5128L57.2427 3.00334C57.4406 2.20245 57.6781 1.68187 57.9947 1.4416C58.3113 1.20134 58.8654 1.04116 59.5778 1.04116H62.7441C63.4961 1.04116 64.0106 1.16129 64.3272 1.4416C64.6438 1.68187 64.9209 2.2425 65.0792 3.00334L71.3325 29.8332L78.1796 3.00334C78.417 2.20245 78.6941 1.68187 78.9711 1.4416C79.2878 1.20134 79.8023 1.04116 80.5147 1.04116H84.1954C84.8287 1.04116 85.1849 1.36152 85.1849 2.04227C85.1849 2.2425 85.1453 2.44272 85.1057 2.68299C85.0662 2.92325 84.987 3.24361 84.8287 3.6841L75.2904 34.6385C75.0529 35.4394 74.7758 35.96 74.4592 36.2003C74.1426 36.4406 73.6281 36.6007 72.9552 36.6007H69.5515C68.7995 36.6007 68.285 36.4806 67.9684 36.2003C67.6518 35.92 67.3747 35.3994 67.2164 34.5985L61.0818 8.76976L54.9868 34.5585C54.7889 35.3593 54.5514 35.8799 54.2348 36.1602C53.9181 36.4406 53.364 36.5607 52.6516 36.5607H49.2479ZM100.106 37.6419C98.0478 37.6419 95.9897 37.4016 94.0108 36.9211C92.0319 36.4406 90.4884 35.92 89.4593 35.3193C88.8261 34.9589 88.3907 34.5585 88.2324 34.1981C88.0741 33.8377 87.9949 33.4372 87.9949 33.0768V31.0345C87.9949 30.1936 88.3116 29.7932 88.9053 29.7932C89.1427 29.7932 89.3802 29.8332 89.6177 29.9133C89.8551 29.9934 90.2113 30.1536 90.6071 30.3137C91.9528 30.9144 93.4172 31.3949 94.9607 31.7153C96.5438 32.0357 98.0874 32.1958 99.6705 32.1958C102.164 32.1958 104.103 31.7553 105.449 30.8744C106.795 29.9934 107.507 28.712 107.507 27.0701C107.507 25.9489 107.151 25.0279 106.438 24.267C105.726 23.5062 104.38 22.8254 102.441 22.1847L96.7021 20.3827C93.8129 19.4617 91.6757 18.1001 90.3696 16.2981C89.0636 14.5362 88.3907 12.574 88.3907 10.4917C88.3907 8.8098 88.7469 7.32816 89.4593 6.04673C90.1717 4.7653 91.1216 3.64406 92.309 2.76307C93.4963 1.84205 94.842 1.16129 96.4251 0.680758C98.0082 0.200223 99.6705 0 101.412 0C102.283 0 103.193 0.0400445 104.064 0.160178C104.974 0.280312 105.805 0.44049 106.636 0.600668C107.428 0.800891 108.18 1.00111 108.892 1.24138C109.605 1.48165 110.159 1.72192 110.555 1.96218C111.109 2.28254 111.504 2.6029 111.742 2.9633C111.979 3.28365 112.098 3.72414 112.098 4.28477V6.16686C112.098 7.0078 111.781 7.44829 111.188 7.44829C110.871 7.44829 110.357 7.28811 109.684 6.96775C107.428 5.92659 104.895 5.40602 102.085 5.40602C99.8288 5.40602 98.0478 5.76642 96.8209 6.52726C95.594 7.28811 94.9607 8.4494 94.9607 10.0912C94.9607 11.2125 95.3565 12.1735 96.1481 12.9344C96.9396 13.6952 98.404 14.4561 100.502 15.1368L106.122 16.9389C108.971 17.8599 111.029 19.1413 112.256 20.7831C113.483 22.425 114.077 24.307 114.077 26.3894C114.077 28.1113 113.721 29.673 113.048 31.0345C112.336 32.396 111.386 33.5974 110.159 34.5585C108.932 35.5596 107.467 36.2804 105.766 36.801C103.985 37.3616 102.124 37.6419 100.106 37.6419Z" fill="#252F3E"/>
<path fill-rule="evenodd" clip-rule="evenodd" d="M107.586 57.1034C94.5649 66.8343 75.6465 72 59.3799 72C36.5829 72 16.0418 63.4705 0.527188 49.2947C-0.699735 48.1735 0.408453 46.6518 1.87284 47.5328C18.654 57.3837 39.3533 63.3504 60.7651 63.3504C75.2111 63.3504 91.082 60.307 105.686 54.06C107.863 53.0589 109.723 55.5016 107.586 57.1034Z" fill="#FF9900"/>
<path fill-rule="evenodd" clip-rule="evenodd" d="M113.008 50.8565C111.346 48.6941 102.006 49.8153 97.7708 50.3359C96.5043 50.4961 96.3064 49.3748 97.4542 48.5339C104.895 43.248 117.124 44.7697 118.549 46.5316C119.974 48.3337 118.153 60.7074 111.188 66.634C110.119 67.555 109.09 67.0745 109.565 65.8732C111.148 61.9088 114.671 52.9788 113.008 50.8565Z" fill="#FF9900"/>
</svg>
