<svg width="112" height="100" viewBox="0 0 112 100" fill="none" xmlns="http://www.w3.org/2000/svg">
<g clip-path="url(#clip0_2003_7)">
<path d="M39.3333 100C48.5333 100 56 92.5334 56 83.3334V66.6667H39.3333C30.1333 66.6667 22.6666 74.1334 22.6666 83.3334C22.6666 92.5334 30.1333 100 39.3333 100Z" fill="#0ACF83"/>
<path d="M22.6666 49.9999C22.6666 40.7999 30.1333 33.3333 39.3333 33.3333H56V66.6665H39.3333C30.1333 66.6665 22.6666 59.1999 22.6666 49.9999Z" fill="#A259FF"/>
<path d="M22.6666 16.6667C22.6666 7.46666 30.1333 0 39.3333 0H56V33.3333H39.3333C30.1333 33.3333 22.6666 25.8667 22.6666 16.6667Z" fill="#F24E1E"/>
<path d="M56 0H72.6667C81.8667 0 89.3334 7.46666 89.3334 16.6667C89.3334 25.8667 81.8667 33.3333 72.6667 33.3333H56V0Z" fill="#FF7262"/>
<path d="M89.3334 49.9999C89.3334 59.1999 81.8667 66.6665 72.6667 66.6665C63.4667 66.6665 56 59.1999 56 49.9999C56 40.7999 63.4667 33.3333 72.6667 33.3333C81.8667 33.3333 89.3334 40.7999 89.3334 49.9999Z" fill="#1ABCFE"/>
</g>
<defs>
<clipPath id="clip0_2003_7">
<rect width="112" height="100" fill="white"/>
</clipPath>
</defs>
</svg>
