<svg width="98" height="100" viewBox="0 0 98 100" fill="none" xmlns="http://www.w3.org/2000/svg">
<path d="M71.594 8.31299C70.9662 5.91366 69.663 3.80706 67.8794 2.30849C66.0958 0.809931 63.9278 2.26662e-05 61.6998 3.01433e-10H58.6892C56.2771 -1.95298e-05 53.9413 0.948996 52.0882 2.68196C50.235 4.41493 48.9818 6.82219 48.5464 9.48499L43.3904 41.018L44.6698 36.105C45.2955 33.7022 46.5984 31.5919 48.3831 30.0906C50.1678 28.5892 52.3381 27.7778 54.5685 27.778H72.0617L79.3988 30.985L86.4704 27.778H84.407C82.179 27.7779 80.0109 26.968 78.2273 25.4695C76.4437 23.9709 75.1405 21.8643 74.5128 19.465L71.594 8.31299Z" fill="url(#paint0_radial_2003_28)"/>
<path d="M27.4655 91.64C28.0862 94.0503 29.3881 96.169 31.1749 97.6769C32.9617 99.1847 35.1366 100 37.3721 100H43.7657C49.3574 100 53.9308 94.998 54.0742 88.723L54.7701 58.318L53.3142 63.901C52.6876 66.3023 51.3846 68.411 49.6003 69.9112C47.8161 71.4113 45.6467 72.2221 43.4173 72.222H25.778L19.4895 68.393L12.6816 72.223H14.7113C19.3033 72.223 23.3421 75.631 24.6179 80.583L27.4655 91.64Z" fill="url(#paint1_radial_2003_28)"/>
<path d="M61.2523 0H25.5263C15.3185 0 9.19483 15.142 5.11152 30.283C0.27357 48.2219 -6.05587 72.2129 12.2571 72.2129H27.6824C32.2923 72.2129 36.3391 68.7919 37.606 63.8169C40.2878 53.2859 44.9886 34.914 48.6807 20.928C50.5562 13.821 52.1199 7.71699 54.5175 3.916C55.8637 1.785 58.1045 0 61.2523 0Z" fill="url(#paint2_linear_2003_28)"/>
<path d="M61.2523 0H25.5263C15.3185 0 9.19483 15.142 5.11152 30.283C0.27357 48.2219 -6.05587 72.2129 12.2571 72.2129H27.6824C32.2923 72.2129 36.3391 68.7919 37.606 63.8169C40.2878 53.2859 44.9886 34.914 48.6807 20.928C50.5562 13.821 52.1199 7.71699 54.5175 3.916C55.8637 1.785 58.1045 0 61.2523 0Z" fill="url(#paint3_linear_2003_28)"/>
<path d="M36.7474 100H72.4743C82.6813 100 88.8058 84.856 92.8891 69.712C97.7262 51.7701 104.056 27.7751 85.7435 27.7751H70.3173C68.0749 27.7735 65.893 28.5922 64.1024 30.1072C62.3117 31.6223 61.0097 33.751 60.3937 36.1711C57.7119 46.7041 53.0112 65.0801 49.319 79.068C47.4426 86.177 45.8799 92.282 43.4814 96.084C42.136 98.215 39.8952 100 36.7474 100Z" fill="url(#paint4_radial_2003_28)"/>
<path d="M36.7474 100H72.4743C82.6813 100 88.8058 84.856 92.8891 69.712C97.7262 51.7701 104.056 27.7751 85.7435 27.7751H70.3173C68.0749 27.7735 65.893 28.5922 64.1024 30.1072C62.3117 31.6223 61.0097 33.751 60.3937 36.1711C57.7119 46.7041 53.0112 65.0801 49.319 79.068C47.4426 86.177 45.8799 92.282 43.4814 96.084C42.136 98.215 39.8952 100 36.7474 100Z" fill="url(#paint5_linear_2003_28)"/>
<defs>
<radialGradient id="paint0_radial_2003_28" cx="0" cy="0" r="1" gradientTransform="matrix(-24.4136 -33.473 28.0436 -25.766 80.198 41.286)" gradientUnits="userSpaceOnUse">
<stop offset="0.096" stop-color="#00AEFF"/>
<stop offset="0.773" stop-color="#2253CE"/>
<stop offset="1" stop-color="#0736C4"/>
</radialGradient>
<radialGradient id="paint1_radial_2003_28" cx="0" cy="0" r="1" gradientTransform="matrix(22.0075 31.4341 -27.1673 23.9603 20.3176 72.0432)" gradientUnits="userSpaceOnUse">
<stop stop-color="#FFB657"/>
<stop offset="0.634" stop-color="#FF5F3D"/>
<stop offset="0.923" stop-color="#C02B3C"/>
</radialGradient>
<linearGradient id="paint2_linear_2003_28" x1="23.3879" y1="8.74999" x2="29.7967" y2="74.8107" gradientUnits="userSpaceOnUse">
<stop offset="0.156" stop-color="#0D91E1"/>
<stop offset="0.487" stop-color="#52B471"/>
<stop offset="0.652" stop-color="#98BD42"/>
<stop offset="0.937" stop-color="#FFC800"/>
</linearGradient>
<linearGradient id="paint3_linear_2003_28" x1="27.8428" y1="1.17536e-09" x2="31.3474" y2="72.1779" gradientUnits="userSpaceOnUse">
<stop stop-color="#3DCBFF"/>
<stop offset="0.247" stop-color="#0588F7" stop-opacity="0"/>
</linearGradient>
<radialGradient id="paint4_radial_2003_28" cx="0" cy="0" r="1" gradientTransform="matrix(-28.2238 90.5891 -96.6907 -37.949 87.5789 20.7031)" gradientUnits="userSpaceOnUse">
<stop offset="0.066" stop-color="#8C48FF"/>
<stop offset="0.5" stop-color="#F2598A"/>
<stop offset="0.896" stop-color="#FFB152"/>
</radialGradient>
<linearGradient id="paint5_linear_2003_28" x1="90.4015" y1="23.3651" x2="90.3555" y2="43.0371" gradientUnits="userSpaceOnUse">
<stop offset="0.058" stop-color="#F8ADFA"/>
<stop offset="0.708" stop-color="#A86EDD" stop-opacity="0"/>
</linearGradient>
</defs>
</svg>
