<svg width="90" height="92" viewBox="0 0 90 92" fill="none" xmlns="http://www.w3.org/2000/svg">
<path d="M19.4969 0H70.5031C81.2637 0 90 8.93045 90 19.9302V72.0698C90 83.0695 81.2637 92 70.5031 92H19.4969C8.73631 92 0 83.0695 0 72.0698V19.9302C0 8.93045 8.73631 0 19.4969 0Z" fill="#FFD02F"/>
<path d="M62.5392 11.4898H52.6576L60.8878 26.2741L42.776 11.4898H32.8944L41.9503 29.5685L23.0127 11.4898H13.1311L23.0127 34.4966L13.1311 80.5102H23.0127L41.9503 31.2021L32.8944 80.5102H42.776L60.8878 27.9349L52.6576 80.5102H62.5392L80.6511 22.9796L62.5392 11.4898Z" fill="#050038"/>
</svg>
