<svg width="80" height="97" viewBox="0 0 80 97" fill="none" xmlns="http://www.w3.org/2000/svg">
<path d="M39.7118 0C19.4028 0 20.6708 10.7345 20.6708 10.7345L20.6934 21.8558H40.0739V25.1947H12.9957C12.9957 25.1947 0 23.3983 0 48.3743C0 73.351 11.343 72.4652 11.343 72.4652H18.1125V60.8751C18.1125 60.8751 17.7475 47.0498 29.2744 47.0498H48.4964C48.4964 47.0498 59.2959 47.2625 59.2959 34.3283V12.9425C59.2959 12.9425 60.9361 0 39.7118 0ZM29.0254 7.47885C29.4833 7.47835 29.9369 7.58792 30.3601 7.8013C30.7833 8.01468 31.1678 8.32768 31.4916 8.72239C31.8155 9.11709 32.0723 9.58575 32.2473 10.1016C32.4224 10.6174 32.5123 11.1702 32.5119 11.7284C32.5123 12.2866 32.4224 12.8394 32.2473 13.3552C32.0723 13.871 31.8155 14.3397 31.4916 14.7344C31.1678 15.1291 30.7833 15.4421 30.3601 15.6554C29.9369 15.8688 29.4833 15.9784 29.0254 15.9779C28.5674 15.9784 28.1138 15.8688 27.6906 15.6554C27.2674 15.4421 26.8829 15.1291 26.5591 14.7344C26.2353 14.3397 25.9784 13.871 25.8034 13.3552C25.6283 12.8394 25.5384 12.2866 25.5388 11.7284C25.5384 11.1702 25.6283 10.6174 25.8034 10.1016C25.9784 9.58575 26.2353 9.11709 26.5591 8.72239C26.8829 8.32768 27.2674 8.01468 27.6906 7.8013C28.1138 7.58792 28.5674 7.47835 29.0254 7.47885Z" fill="url(#paint0_linear_2003_97)"/>
<path d="M40.2885 97C60.5975 97 59.3295 86.2655 59.3295 86.2655L59.3069 75.1445H39.9261V71.8056H67.0042C67.0042 71.8056 80 73.602 80 48.6252C80 23.6489 68.657 24.5346 68.657 24.5346H61.8875V36.1244C61.8875 36.1244 62.2525 49.9497 50.7256 49.9497H31.5036C31.5036 49.9497 20.7041 49.7371 20.7041 62.6716V84.0578C20.7041 84.0578 19.0645 97 40.2885 97ZM50.9749 89.5219C50.517 89.5224 50.0634 89.4128 49.6402 89.1994C49.217 88.9861 48.8325 88.6731 48.5087 88.2784C48.1848 87.8837 47.928 87.415 47.753 86.8992C47.5779 86.3834 47.488 85.8306 47.4884 85.2724C47.4879 84.7141 47.5778 84.1613 47.7529 83.6454C47.9279 83.1296 48.1847 82.6609 48.5086 82.2661C48.8324 81.8714 49.2169 81.5584 49.6401 81.345C50.0633 81.1315 50.5169 81.022 50.9749 81.0225C51.4329 81.022 51.8865 81.1315 52.3097 81.3449C52.7329 81.5583 53.1174 81.8713 53.4412 82.266C53.765 82.6607 54.0218 83.1294 54.1969 83.6452C54.372 84.161 54.4619 84.7138 54.4615 85.272C54.4619 85.8302 54.372 86.383 54.1969 86.8988C54.0218 87.4146 53.765 87.8833 53.4412 88.278C53.1174 88.6727 52.7329 88.9857 52.3097 89.1991C51.8865 89.4124 51.4329 89.5224 50.9749 89.5219Z" fill="url(#paint1_linear_2003_97)"/>
<defs>
<linearGradient id="paint0_linear_2003_97" x1="7.68797" y1="8.72455" x2="54.9858" y2="47.1431" gradientUnits="userSpaceOnUse">
<stop stop-color="#387EB8"/>
<stop offset="1" stop-color="#366994"/>
</linearGradient>
<linearGradient id="paint1_linear_2003_97" x1="32.0224" y1="39.4442" x2="82.3621" y2="78.4877" gradientUnits="userSpaceOnUse">
<stop stop-color="#FFE052"/>
<stop offset="1" stop-color="#FFC331"/>
</linearGradient>
</defs>
</svg>
