<svg width="85" height="86" viewBox="0 0 85 86" fill="none" xmlns="http://www.w3.org/2000/svg">
<path d="M0.808704 29.9893C0.808704 29.9893 -1.26158 28.4631 1.22276 26.4252L7.01092 21.132C7.01092 21.132 8.66715 19.35 10.4183 20.9026L63.8315 62.2603V82.0922C63.8315 82.0922 63.8056 85.2064 59.898 84.8623L0.808704 29.9893Z" fill="#2489CA"/>
<path d="M14.5761 42.7726L0.808684 55.5734C0.808684 55.5734 -0.606009 56.6497 0.808684 58.5729L7.20069 64.5189C7.20069 64.5189 8.71889 66.1863 10.9617 64.2895L25.5572 52.9709L14.5761 42.7726Z" fill="#1070B3"/>
<path d="M38.7467 42.8784L63.9955 23.1611L63.8316 3.43505C63.8316 3.43505 62.7534 -0.870111 59.1563 1.37069L25.5573 32.6448L38.7467 42.8784Z" fill="#0877B9"/>
<path d="M59.8981 84.889C61.3645 86.4241 63.1415 85.9212 63.1415 85.9212L82.8178 76.0052C85.3367 74.2496 84.983 72.0706 84.983 72.0706V12.8571C84.983 10.2546 82.3779 9.35475 82.3779 9.35475L65.324 0.947347C61.5975 -1.40814 59.1562 1.3708 59.1562 1.3708C59.1562 1.3708 62.2962 -0.940569 63.8316 3.43516V81.7307C63.8316 82.2689 63.7195 82.7982 63.4952 83.2746C63.0467 84.2009 62.0719 85.0655 59.7342 84.7038L59.8981 84.889Z" fill="#3C99D4"/>
</svg>
